<?xml version="1.0" encoding="utf-8"?>
<!-- Generator: Adobe Illustrator 27.5.0, SVG Export Plug-In . SVG Version: 6.00 Build 0)  -->
<svg version="1.1" xmlns="http://www.w3.org/2000/svg" xmlns:xlink="http://www.w3.org/1999/xlink" x="0px" y="0px"
	 viewBox="0 0 500 500" style="enable-background:new 0 0 500 500;" xml:space="preserve">
<g id="BACKGROUND">
	<rect style="fill:#FFFFFF;" width="500.271" height="500.271"/>
	<g>
		<circle style="fill:#BFBEFC;" cx="255.346" cy="247.535" r="204.592"/>
		
			<ellipse transform="matrix(0.7071 -0.7071 0.7071 0.7071 -107.9321 248.7085)" style="fill:none;stroke:#E6E3FC;stroke-width:0.5;stroke-miterlimit:10;" cx="246.252" cy="254.64" rx="204.592" ry="204.592"/>
		<circle style="fill:none;stroke:#FFFFFF;stroke-width:0.5;stroke-miterlimit:10;" cx="247.314" cy="253.577" r="204.592"/>
	</g>
</g>
<g id="OBJECTS">
	<g>
		<g>
			<path style="fill:none;stroke:#6E36FF;stroke-width:3;stroke-linejoin:round;stroke-miterlimit:10;" d="M209.539,132.722
				c0,36.747,55.277,36.747,55.277,73.494c0,36.752-55.277,36.752-55.277,73.504c0,36.752,55.277,36.752,55.277,73.504"/>
			<path style="fill:none;stroke:#280069;stroke-width:3;stroke-miterlimit:10;" d="M209.539,353.225
				c0-36.748,55.277-36.748,55.277-73.497c0-36.747-55.277-36.747-55.277-73.494c0-36.752,55.277-36.752,55.277-73.504"/>
			<g>
				
					<line style="fill:none;stroke:#280069;stroke-linejoin:round;stroke-miterlimit:10;" x1="229.59" y1="257.98" x2="244.223" y2="257.98"/>
				
					<line style="fill:none;stroke:#6E36FF;stroke-linejoin:round;stroke-miterlimit:10;" x1="229.59" y1="301.877" x2="244.223" y2="301.877"/>
				
					<line style="fill:none;stroke:#280069;stroke-linejoin:round;stroke-miterlimit:10;" x1="222.139" y1="292.529" x2="252.216" y2="292.529"/>
				
					<line style="fill:none;stroke:#6E36FF;stroke-linejoin:round;stroke-miterlimit:10;" x1="222.139" y1="266.922" x2="252.216" y2="266.922"/>
				
					<line style="fill:none;stroke:#6E36FF;stroke-linejoin:round;stroke-miterlimit:10;" x1="218.2" y1="279.851" x2="257.355" y2="279.851"/>
			</g>
			<g>
				
					<line style="fill:none;stroke:#280069;stroke-linejoin:round;stroke-miterlimit:10;" x1="229.59" y1="184.277" x2="244.223" y2="184.277"/>
				
					<line style="fill:none;stroke:#6E36FF;stroke-linejoin:round;stroke-miterlimit:10;" x1="229.59" y1="228.174" x2="244.223" y2="228.174"/>
				
					<line style="fill:none;stroke:#280069;stroke-linejoin:round;stroke-miterlimit:10;" x1="222.139" y1="217.957" x2="252.216" y2="217.957"/>
				
					<line style="fill:none;stroke:#6E36FF;stroke-linejoin:round;stroke-miterlimit:10;" x1="222.139" y1="194.363" x2="252.216" y2="194.363"/>
				
					<line style="fill:none;stroke:#6E36FF;stroke-linejoin:round;stroke-miterlimit:10;" x1="218.2" y1="206.673" x2="257.355" y2="206.673"/>
			</g>
			<g>
				
					<line style="fill:none;stroke:#6E36FF;stroke-linejoin:round;stroke-miterlimit:10;" x1="229.59" y1="154.471" x2="244.223" y2="154.471"/>
				
					<line style="fill:none;stroke:#280069;stroke-linejoin:round;stroke-miterlimit:10;" x1="222.139" y1="142.044" x2="252.216" y2="142.044"/>
			</g>
			<g>
				
					<line style="fill:none;stroke:#280069;stroke-linejoin:round;stroke-miterlimit:10;" x1="244.764" y1="330.498" x2="230.132" y2="330.498"/>
				
					<line style="fill:none;stroke:#6E36FF;stroke-linejoin:round;stroke-miterlimit:10;" x1="252.216" y1="343.112" x2="222.139" y2="343.112"/>
				<path style="fill:none;stroke:#280069;stroke-linejoin:round;stroke-miterlimit:10;" d="M215.974,348.483"/>
				<path style="fill:none;stroke:#280069;stroke-linejoin:round;stroke-miterlimit:10;" d="M255.129,348.483"/>
			</g>
		</g>
		<path style="fill:#FC5EFC;" d="M223.93,194.363c0,0.989-0.802,1.791-1.791,1.791c-0.989,0-1.791-0.802-1.791-1.791
			s0.802-1.791,1.791-1.791C223.128,192.572,223.93,193.374,223.93,194.363z"/>
		<path style="fill:#FC5EFC;" d="M254.007,194.363c0,0.989-0.802,1.791-1.791,1.791c-0.989,0-1.791-0.802-1.791-1.791
			s0.802-1.791,1.791-1.791C253.205,192.572,254.007,193.374,254.007,194.363z"/>
		<path style="fill:#FC5EFC;" d="M219.991,206.673c0,0.989-0.802,1.791-1.791,1.791s-1.791-0.802-1.791-1.791
			c0-0.989,0.802-1.791,1.791-1.791S219.991,205.684,219.991,206.673z"/>
		<path style="fill:#FC5EFC;" d="M230.282,228.174c0,0.989-0.802,1.791-1.791,1.791c-0.989,0-1.791-0.802-1.791-1.791
			c0-0.989,0.802-1.791,1.791-1.791C229.48,226.383,230.282,227.184,230.282,228.174z"/>
		<path style="fill:#FC5EFC;" d="M247.003,228.174c0,0.989-0.802,1.791-1.791,1.791c-0.989,0-1.791-0.802-1.791-1.791
			c0-0.989,0.802-1.791,1.791-1.791C246.201,226.383,247.003,227.184,247.003,228.174z"/>
		<path style="fill:#FC5EFC;" d="M230.282,154.471c0,0.989-0.802,1.791-1.791,1.791c-0.989,0-1.791-0.802-1.791-1.791
			c0-0.989,0.802-1.791,1.791-1.791C229.48,152.679,230.282,153.481,230.282,154.471z"/>
		<path style="fill:#FC5EFC;" d="M247.003,154.471c0,0.989-0.802,1.791-1.791,1.791c-0.989,0-1.791-0.802-1.791-1.791
			c0-0.989,0.802-1.791,1.791-1.791C246.201,152.679,247.003,153.481,247.003,154.471z"/>
		<path style="fill:#FC5EFC;" d="M259.986,206.673c0,0.989-0.802,1.791-1.791,1.791c-0.989,0-1.791-0.802-1.791-1.791
			c0-0.989,0.802-1.791,1.791-1.791C259.184,204.882,259.986,205.684,259.986,206.673z"/>
		<path style="fill:#1C8BF9;" d="M223.93,217.957c0,0.989-0.802,1.791-1.791,1.791c-0.989,0-1.791-0.802-1.791-1.791
			c0-0.989,0.802-1.791,1.791-1.791C223.128,216.166,223.93,216.968,223.93,217.957z"/>
		<path style="fill:#1C8BF9;" d="M254.007,217.957c0,0.989-0.802,1.791-1.791,1.791c-0.989,0-1.791-0.802-1.791-1.791
			c0-0.989,0.802-1.791,1.791-1.791C253.205,216.166,254.007,216.968,254.007,217.957z"/>
		<path style="fill:#1C8BF9;" d="M223.93,142.044c0,0.989-0.802,1.791-1.791,1.791c-0.989,0-1.791-0.802-1.791-1.791
			c0-0.989,0.802-1.791,1.791-1.791C223.128,140.253,223.93,141.055,223.93,142.044z"/>
		<path style="fill:#1C8BF9;" d="M254.007,142.044c0,0.989-0.802,1.791-1.791,1.791c-0.989,0-1.791-0.802-1.791-1.791
			c0-0.989,0.802-1.791,1.791-1.791C253.205,140.253,254.007,141.055,254.007,142.044z"/>
		<path style="fill:#1C8BF9;" d="M246.014,184.277c0,0.989-0.802,1.791-1.791,1.791s-1.791-0.802-1.791-1.791
			c0-0.989,0.802-1.791,1.791-1.791S246.014,183.288,246.014,184.277z"/>
		<path style="fill:#1C8BF9;" d="M230.282,184.277c0,0.989-0.802,1.791-1.791,1.791c-0.989,0-1.791-0.802-1.791-1.791
			c0-0.989,0.802-1.791,1.791-1.791C229.48,182.486,230.282,183.288,230.282,184.277z"/>
		<path style="fill:#1C8BF9;" d="M246.014,257.98c0,0.989-0.802,1.791-1.791,1.791s-1.791-0.802-1.791-1.791
			s0.802-1.791,1.791-1.791S246.014,256.991,246.014,257.98z"/>
		<path style="fill:#1C8BF9;" d="M230.282,257.98c0,0.989-0.802,1.791-1.791,1.791c-0.989,0-1.791-0.802-1.791-1.791
			s0.802-1.791,1.791-1.791C229.48,256.189,230.282,256.991,230.282,257.98z"/>
		<path style="fill:#1C8BF9;" d="M246.014,330.498c0,0.989-0.802,1.791-1.791,1.791s-1.791-0.802-1.791-1.791
			s0.802-1.791,1.791-1.791S246.014,329.509,246.014,330.498z"/>
		<path style="fill:#1C8BF9;" d="M230.282,330.498c0,0.989-0.802,1.791-1.791,1.791c-0.989,0-1.791-0.802-1.791-1.791
			s0.802-1.791,1.791-1.791C229.48,328.707,230.282,329.509,230.282,330.498z"/>
		<path style="fill:#FC5EFC;" d="M223.93,267.143c0,0.989-0.802,1.791-1.791,1.791c-0.989,0-1.791-0.802-1.791-1.791
			c0-0.989,0.802-1.791,1.791-1.791C223.128,265.352,223.93,266.154,223.93,267.143z"/>
		<path style="fill:#FC5EFC;" d="M219.991,279.851c0,0.989-0.802,1.791-1.791,1.791s-1.791-0.802-1.791-1.791
			c0-0.989,0.802-1.791,1.791-1.791S219.991,278.861,219.991,279.851z"/>
		<path style="fill:#FC5EFC;" d="M254.007,267.143c0,0.989-0.802,1.791-1.791,1.791c-0.989,0-1.791-0.802-1.791-1.791
			c0-0.989,0.802-1.791,1.791-1.791C253.205,265.352,254.007,266.154,254.007,267.143z"/>
		<path style="fill:#FC5EFC;" d="M223.93,343.112c0,0.989-0.802,1.791-1.791,1.791c-0.989,0-1.791-0.802-1.791-1.791
			c0-0.989,0.802-1.791,1.791-1.791C223.128,341.32,223.93,342.122,223.93,343.112z"/>
		<path style="fill:#FC5EFC;" d="M254.007,343.112c0,0.989-0.802,1.791-1.791,1.791c-0.989,0-1.791-0.802-1.791-1.791
			c0-0.989,0.802-1.791,1.791-1.791C253.205,341.32,254.007,342.122,254.007,343.112z"/>
		<path style="fill:#FC5EFC;" d="M259.986,279.851c0,0.989-0.802,1.791-1.791,1.791c-0.989,0-1.791-0.802-1.791-1.791
			c0-0.989,0.802-1.791,1.791-1.791C259.184,278.059,259.986,278.861,259.986,279.851z"/>
		<path style="fill:#FC5EFC;" d="M247.003,301.877c0,0.989-0.802,1.791-1.791,1.791c-0.989,0-1.791-0.802-1.791-1.791
			c0-0.989,0.802-1.791,1.791-1.791C246.201,300.086,247.003,300.888,247.003,301.877z"/>
		<path style="fill:#FC5EFC;" d="M231.382,301.877c0,0.989-0.802,1.791-1.791,1.791c-0.989,0-1.791-0.802-1.791-1.791
			c0-0.989,0.802-1.791,1.791-1.791C230.58,300.086,231.382,300.888,231.382,301.877z"/>
		<path style="fill:#1C8BF9;" d="M223.93,292.789c0,0.989-0.802,1.791-1.791,1.791c-0.989,0-1.791-0.802-1.791-1.791
			s0.802-1.791,1.791-1.791C223.128,290.998,223.93,291.8,223.93,292.789z"/>
		<path style="fill:#1C8BF9;" d="M254.007,292.789c0,0.989-0.802,1.791-1.791,1.791c-0.989,0-1.791-0.802-1.791-1.791
			s0.802-1.791,1.791-1.791C253.205,290.998,254.007,291.8,254.007,292.789z"/>
	</g>
	<g>
		<circle style="fill:#DCD9FF;" cx="284.025" cy="220.262" r="29.039"/>
		<g>
			<g>
				
					<rect x="310.265" y="247.31" transform="matrix(0.7722 -0.6354 0.6354 0.7722 -91.1399 256.836)" style="fill:#FC5EFC;" width="4.696" height="16.423"/>
				
					<rect x="324.43" y="256.684" transform="matrix(0.7722 -0.6354 0.6354 0.7722 -101.2072 273.5529)" style="fill:#1C8BF9;" width="12.923" height="42.471"/>
			</g>
			<path style="fill:#1C8BF9;" d="M287.724,182.21c-10.559-1.026-20.533,2.346-28.105,8.624c-7.496,6.215-12.63,15.273-13.646,25.73
				c-2.043,21.016,13.338,39.709,34.354,41.752c9.549,0.928,18.618-1.74,25.865-6.903c0.688-0.49,1.358-1.001,2.011-1.533
				c0.56-0.455,1.109-0.93,1.641-1.42c6.723-6.153,11.283-14.716,12.234-24.499C324.121,202.945,308.74,184.253,287.724,182.21z
				 M312.926,223.072c-0.778,8.033-4.764,14.986-10.565,19.707c-5.722,4.662-13.216,7.155-21.145,6.384
				c-15.964-1.552-27.646-15.749-26.092-31.71c0.771-7.928,4.661-14.802,10.337-19.519c5.75-4.783,13.341-7.356,21.373-6.572
				C302.796,192.911,314.478,207.108,312.926,223.072z"/>
		</g>
		<g>
			<defs>
				<circle id="SVGID_1_" cx="284.025" cy="220.262" r="28.588"/>
			</defs>
			<clipPath id="SVGID_00000099657067764769632940000003895578978755223477_">
				<use xlink:href="#SVGID_1_"  style="overflow:visible;"/>
			</clipPath>
			<g style="clip-path:url(#SVGID_00000099657067764769632940000003895578978755223477_);">
				<g>
					<path style="fill:none;stroke:#6E36FF;stroke-width:5;stroke-linecap:round;stroke-linejoin:round;stroke-miterlimit:10;" d="
						M240.485,129.215c0,41.183,61.949,41.183,61.949,82.365c0,41.188-61.949,41.188-61.949,82.376s61.949,41.188,61.949,82.376"/>
					<path style="fill:none;stroke:#280069;stroke-width:3;stroke-linecap:round;stroke-linejoin:round;stroke-miterlimit:10;" d="
						M240.485,376.333c0-41.184,61.949-41.184,61.949-82.368c0-41.182-61.949-41.182-61.949-82.365
						c0-41.188,61.949-41.188,61.949-82.376"/>
					<g>
						
							<line style="fill:none;stroke:#280069;stroke-linecap:round;stroke-linejoin:round;stroke-miterlimit:10;" x1="262.956" y1="269.592" x2="279.355" y2="269.592"/>
						
							<line style="fill:none;stroke:#6E36FF;stroke-linecap:round;stroke-linejoin:round;stroke-miterlimit:10;" x1="262.956" y1="318.787" x2="279.355" y2="318.787"/>
						
							<line style="fill:none;stroke:#280069;stroke-linecap:round;stroke-linejoin:round;stroke-miterlimit:10;" x1="254.605" y1="308.311" x2="288.313" y2="308.311"/>
						
							<line style="fill:none;stroke:#6E36FF;stroke-linecap:round;stroke-linejoin:round;stroke-miterlimit:10;" x1="254.605" y1="279.613" x2="288.313" y2="279.613"/>
						
							<line style="fill:none;stroke:#6E36FF;stroke-linecap:round;stroke-linejoin:round;stroke-miterlimit:10;" x1="250.191" y1="294.102" x2="294.072" y2="294.102"/>
					</g>
					<g>
						
							<line style="fill:none;stroke:#280069;stroke-width:2;stroke-linecap:round;stroke-linejoin:round;stroke-miterlimit:10;" x1="262.956" y1="186.993" x2="279.355" y2="186.993"/>
						
							<line style="fill:none;stroke:#6E36FF;stroke-width:2;stroke-linecap:round;stroke-linejoin:round;stroke-miterlimit:10;" x1="262.956" y1="236.188" x2="279.355" y2="236.188"/>
						
							<line style="fill:none;stroke:#280069;stroke-width:2;stroke-linecap:round;stroke-linejoin:round;stroke-miterlimit:10;" x1="254.605" y1="224.739" x2="288.313" y2="224.739"/>
						
							<line style="fill:none;stroke:#6E36FF;stroke-width:2;stroke-linecap:round;stroke-linejoin:round;stroke-miterlimit:10;" x1="254.605" y1="198.296" x2="288.313" y2="198.296"/>
						
							<line style="fill:none;stroke:#6E36FF;stroke-width:2;stroke-linecap:round;stroke-linejoin:round;stroke-miterlimit:10;" x1="250.191" y1="212.092" x2="294.072" y2="212.092"/>
					</g>
					<g>
						
							<line style="fill:none;stroke:#6E36FF;stroke-linecap:round;stroke-linejoin:round;stroke-miterlimit:10;" x1="262.956" y1="153.589" x2="279.355" y2="153.589"/>
						
							<line style="fill:none;stroke:#280069;stroke-linecap:round;stroke-linejoin:round;stroke-miterlimit:10;" x1="254.605" y1="139.663" x2="288.313" y2="139.663"/>
					</g>
					<g>
						
							<line style="fill:none;stroke:#280069;stroke-linecap:round;stroke-linejoin:round;stroke-miterlimit:10;" x1="279.962" y1="350.863" x2="263.564" y2="350.863"/>
						
							<line style="fill:none;stroke:#6E36FF;stroke-linecap:round;stroke-linejoin:round;stroke-miterlimit:10;" x1="288.313" y1="364.999" x2="254.605" y2="364.999"/>
						<path style="fill:none;stroke:#280069;stroke-linecap:round;stroke-linejoin:round;stroke-miterlimit:10;" d="
							M247.697,371.019"/>
						<path style="fill:none;stroke:#280069;stroke-linecap:round;stroke-linejoin:round;stroke-miterlimit:10;" d="
							M291.578,371.019"/>
					</g>
				</g>
				<circle style="fill:#FC5EFC;" cx="254.605" cy="198.296" r="2.007"/>
				<path style="fill:#FC5EFC;" d="M291.441,198.296c0,1.337-1.084,2.421-2.422,2.421s-2.422-1.084-2.422-2.421
					c0-1.337,1.084-2.422,2.422-2.422S291.441,196.959,291.441,198.296z"/>
				<path style="fill:#FC5EFC;" d="M252.199,212.092c0,1.109-0.899,2.007-2.007,2.007s-2.007-0.899-2.007-2.007
					s0.899-2.007,2.007-2.007S252.199,210.984,252.199,212.092z"/>
				<path style="fill:#FC5EFC;" d="M263.732,236.188c0,1.338-1.084,2.422-2.422,2.422s-2.422-1.084-2.422-2.422
					c0-1.337,1.084-2.421,2.422-2.421S263.732,234.851,263.732,236.188z"/>
				<path style="fill:#FC5EFC;" d="M282.823,236.188c0,1.338-1.084,2.422-2.422,2.422c-1.337,0-2.421-1.084-2.421-2.422
					c0-1.337,1.084-2.421,2.421-2.421C281.739,233.767,282.823,234.851,282.823,236.188z"/>
				<path style="fill:#FC5EFC;" d="M263.732,153.589c0,1.109-0.899,2.007-2.007,2.007c-1.109,0-2.007-0.899-2.007-2.007
					c0-1.109,0.899-2.007,2.007-2.007C262.833,151.582,263.732,152.48,263.732,153.589z"/>
				<path style="fill:#FC5EFC;" d="M282.471,153.589c0,1.109-0.899,2.007-2.007,2.007c-1.109,0-2.007-0.899-2.007-2.007
					c0-1.109,0.899-2.007,2.007-2.007C281.572,151.582,282.471,152.48,282.471,153.589z"/>
				<circle style="fill:#FC5EFC;" cx="294.59" cy="212.092" r="2.421"/>
				<path style="fill:#1C8BF9;" d="M256.613,224.739c0,1.109-0.899,2.007-2.007,2.007c-1.109,0-2.007-0.899-2.007-2.007
					c0-1.109,0.899-2.007,2.007-2.007C255.714,222.731,256.613,223.63,256.613,224.739z"/>
				<path style="fill:#1C8BF9;" d="M292.169,224.739c0,1.337-1.084,2.422-2.422,2.422s-2.422-1.084-2.422-2.422
					c0-1.337,1.084-2.421,2.422-2.421S292.169,223.401,292.169,224.739z"/>
				<path style="fill:#1C8BF9;" d="M256.613,139.663c0,1.109-0.899,2.007-2.007,2.007c-1.109,0-2.007-0.899-2.007-2.007
					s0.899-2.007,2.007-2.007C255.714,137.655,256.613,138.554,256.613,139.663z"/>
				<path style="fill:#1C8BF9;" d="M290.32,139.663c0,1.109-0.899,2.007-2.007,2.007c-1.109,0-2.007-0.899-2.007-2.007
					s0.899-2.007,2.007-2.007C289.422,137.655,290.32,138.554,290.32,139.663z"/>
				<path style="fill:#1C8BF9;" d="M281.362,186.993c0,1.109-0.899,2.007-2.007,2.007c-1.109,0-2.007-0.899-2.007-2.007
					c0-1.109,0.899-2.007,2.007-2.007C280.463,184.986,281.362,185.885,281.362,186.993z"/>
				<path style="fill:#1C8BF9;" d="M263.732,186.993c0,1.109-0.899,2.007-2.007,2.007c-1.109,0-2.007-0.899-2.007-2.007
					c0-1.109,0.899-2.007,2.007-2.007C262.833,184.986,263.732,185.885,263.732,186.993z"/>
				<path style="fill:#1C8BF9;" d="M281.362,269.592c0,1.109-0.899,2.007-2.007,2.007c-1.109,0-2.007-0.899-2.007-2.007
					c0-1.109,0.899-2.007,2.007-2.007C280.463,267.585,281.362,268.484,281.362,269.592z"/>
				<path style="fill:#1C8BF9;" d="M263.732,269.592c0,1.109-0.899,2.007-2.007,2.007c-1.109,0-2.007-0.899-2.007-2.007
					c0-1.109,0.899-2.007,2.007-2.007C262.833,267.585,263.732,268.484,263.732,269.592z"/>
				<path style="fill:#1C8BF9;" d="M281.362,350.863c0,1.109-0.899,2.007-2.007,2.007c-1.109,0-2.007-0.899-2.007-2.007
					c0-1.109,0.899-2.007,2.007-2.007C280.463,348.856,281.362,349.754,281.362,350.863z"/>
				<path style="fill:#1C8BF9;" d="M263.732,350.863c0,1.109-0.899,2.007-2.007,2.007c-1.109,0-2.007-0.899-2.007-2.007
					c0-1.109,0.899-2.007,2.007-2.007C262.833,348.856,263.732,349.754,263.732,350.863z"/>
				<path style="fill:#FC5EFC;" d="M256.613,279.861c0,1.109-0.899,2.007-2.007,2.007c-1.109,0-2.007-0.899-2.007-2.007
					c0-1.109,0.899-2.007,2.007-2.007C255.714,277.853,256.613,278.752,256.613,279.861z"/>
				<path style="fill:#FC5EFC;" d="M252.199,294.102c0,1.109-0.899,2.007-2.007,2.007s-2.007-0.899-2.007-2.007
					c0-1.109,0.899-2.007,2.007-2.007S252.199,292.994,252.199,294.102z"/>
				<path style="fill:#FC5EFC;" d="M290.32,279.861c0,1.109-0.899,2.007-2.007,2.007c-1.109,0-2.007-0.899-2.007-2.007
					c0-1.109,0.899-2.007,2.007-2.007C289.422,277.853,290.32,278.752,290.32,279.861z"/>
				<path style="fill:#FC5EFC;" d="M256.613,364.999c0,1.109-0.899,2.007-2.007,2.007c-1.109,0-2.007-0.899-2.007-2.007
					c0-1.109,0.899-2.007,2.007-2.007C255.714,362.992,256.613,363.89,256.613,364.999z"/>
				<path style="fill:#FC5EFC;" d="M290.32,364.999c0,1.109-0.899,2.007-2.007,2.007c-1.109,0-2.007-0.899-2.007-2.007
					c0-1.109,0.899-2.007,2.007-2.007C289.422,362.992,290.32,363.89,290.32,364.999z"/>
				<path style="fill:#FC5EFC;" d="M297.021,294.102c0,1.109-0.899,2.007-2.007,2.007c-1.109,0-2.007-0.899-2.007-2.007
					c0-1.109,0.899-2.007,2.007-2.007C296.122,292.095,297.021,292.994,297.021,294.102z"/>
				<path style="fill:#FC5EFC;" d="M282.471,318.787c0,1.109-0.899,2.007-2.007,2.007c-1.109,0-2.007-0.899-2.007-2.007
					c0-1.109,0.899-2.007,2.007-2.007C281.572,316.78,282.471,317.679,282.471,318.787z"/>
				<path style="fill:#FC5EFC;" d="M264.964,318.787c0,1.109-0.899,2.007-2.007,2.007s-2.007-0.899-2.007-2.007
					c0-1.109,0.899-2.007,2.007-2.007S264.964,317.679,264.964,318.787z"/>
				<circle style="fill:#1C8BF9;" cx="254.605" cy="308.603" r="2.007"/>
				<path style="fill:#1C8BF9;" d="M290.32,308.603c0,1.109-0.899,2.007-2.007,2.007c-1.109,0-2.007-0.899-2.007-2.007
					c0-1.109,0.899-2.007,2.007-2.007C289.422,306.595,290.32,307.494,290.32,308.603z"/>
			</g>
		</g>
	</g>
	<g>
		<g>
			<path style="fill:#F2F2FF;" d="M94.613,387.337l16.708-16.707l-9.24-9.24c-7.541-7.54-11.693-17.565-11.693-28.229v-15.876
				c0-22.013,17.909-39.921,39.921-39.921h22.085v-23.627h-22.085c-35.041,0-63.549,28.508-63.549,63.549v15.876
				c0,16.975,6.611,32.934,18.614,44.936L94.613,387.337z"/>
		</g>
		<path style="fill:#FFFFFF;" d="M145.531,232.297h24.803v-1.913c0-6.676-5.412-12.089-12.089-12.089h-0.625
			c-6.676,0-12.089,5.412-12.089,12.089V232.297z"/>
		
			<rect x="145.531" y="316.306" transform="matrix(-1 -1.224647e-16 1.224647e-16 -1 315.8641 646.6125)" style="fill:#FFFFFF;" width="24.802" height="14.002"/>
		
			<rect x="145.531" y="325.494" transform="matrix(-1 -1.224647e-16 1.224647e-16 -1 315.8641 655.801)" style="fill:#FC5EFC;" width="24.802" height="4.813"/>
		<path style="fill:#FFFFFF;" d="M145.218,382.375h16.159c4.947,0,8.957-4.01,8.957-8.957v-17.515h-25.116V382.375z"/>
		
			<rect x="122.903" y="361.591" transform="matrix(-1 -1.224647e-16 1.224647e-16 -1 268.1204 743.9662)" style="fill:#FFFFFF;" width="22.315" height="20.783"/>
		<path style="fill:#1C8BF9;" d="M84.946,423.723h90.791c5.014,0,9.079-4.065,9.079-9.079l0,0c0-5.014-4.065-9.079-9.079-9.079
			H84.946c-5.014,0-9.079,4.065-9.079,9.079l0,0C75.867,419.658,79.932,423.723,84.946,423.723z"/>
		<path style="fill:#FC5EFC;" d="M94.244,405.565h42.482v-35.557c0-8.514-6.902-15.417-15.417-15.417H109.66
			c-8.514,0-15.417,6.902-15.417,15.417V405.565z"/>
		<circle style="fill:none;stroke:#280069;stroke-width:5;stroke-miterlimit:10;" cx="115.485" cy="371.983" r="7.503"/>
		
			<rect x="136.726" y="351.09" transform="matrix(-1 -1.224647e-16 1.224647e-16 -1 314.1028 706.9936)" style="fill:#1C8BF9;" width="40.652" height="4.813"/>
		<path style="fill:#1C8BF9;" d="M138.487,316.306h38.89v-75.559c0-4.667-3.783-8.45-8.45-8.45h-21.99
			c-4.667,0-8.45,3.783-8.45,8.45V316.306z"/>
		<circle style="fill:none;stroke:#6E36FF;stroke-width:5;stroke-miterlimit:10;" cx="138.487" cy="265.177" r="7.503"/>
	</g>
	<g>
		
			<line style="fill:none;stroke:#FFFFFF;stroke-width:3;stroke-miterlimit:10;" x1="90.774" y1="223.279" x2="96.739" y2="229.244"/>
		
			<line style="fill:none;stroke:#FFFFFF;stroke-width:3;stroke-miterlimit:10;" x1="96.739" y1="223.279" x2="90.774" y2="229.244"/>
	</g>
	<g>
		
			<line style="fill:none;stroke:#FFFFFF;stroke-width:3;stroke-miterlimit:10;" x1="346.87" y1="384.042" x2="352.835" y2="390.007"/>
		
			<line style="fill:none;stroke:#FFFFFF;stroke-width:3;stroke-miterlimit:10;" x1="352.835" y1="384.042" x2="346.87" y2="390.007"/>
	</g>
	<g>
		
			<line style="fill:none;stroke:#FFFFFF;stroke-width:3;stroke-miterlimit:10;" x1="235.126" y1="79.219" x2="241.091" y2="85.184"/>
		
			<line style="fill:none;stroke:#FFFFFF;stroke-width:3;stroke-miterlimit:10;" x1="241.091" y1="79.219" x2="235.126" y2="85.184"/>
	</g>
	<circle style="fill:none;stroke:#FFFFFF;stroke-width:3;stroke-miterlimit:10;" cx="300.524" cy="156.692" r="3.836"/>
	<circle style="fill:none;stroke:#FFFFFF;stroke-width:3;stroke-miterlimit:10;" cx="420.178" cy="281.642" r="3.836"/>
	<circle style="fill:none;stroke:#FFFFFF;stroke-width:3;stroke-miterlimit:10;" cx="216.027" cy="389.393" r="3.836"/>
	<g>
		<g>
			<path style="fill:#FFFFFF;" d="M403.029,261.868H361.48l0,0c4.129,4.247,6.445,9.933,6.458,15.856l0.163,72.185
				c0,7.673,6.22,13.892,13.892,13.892h0c7.673,0,13.892-6.22,13.892-13.892v-71.43c0-5.941,2.317-11.648,6.458-15.908
				L403.029,261.868z"/>
			<path style="fill:#1C8BF9;" d="M382.771,356.601h-1.967c-3.866,0-7-3.134-7-7v-46.667h15.967v46.667
				C389.771,353.467,386.637,356.601,382.771,356.601z"/>
		</g>
		<g>
			<path style="fill:#1C8BF9;" d="M394.031,226.827c-6.04,6.04-8.564,14.247-7.618,22.118c7.87,0.945,16.078-1.579,22.117-7.618
				c6.04-6.04,8.564-14.247,7.619-22.118C408.278,218.263,400.071,220.787,394.031,226.827z"/>
			<path style="fill:#1C8BF9;" d="M366.532,181.786c-6.04-6.04-14.247-8.564-22.118-7.618c-0.945,7.87,1.579,16.078,7.618,22.118
				c6.04,6.04,14.247,8.564,22.118,7.618C375.096,196.033,372.572,187.825,366.532,181.786z"/>
			<path style="fill:#1C8BF9;" d="M401.227,180.765c3.506-3.505,4.97-8.269,4.422-12.837c-4.568-0.549-9.331,0.916-12.837,4.422
				c-3.505,3.505-4.97,8.269-4.422,12.837C392.958,185.735,397.722,184.27,401.227,180.765z"/>
			<path style="fill:#FC5EFC;" d="M375.064,165.95c0,1.681-1.363,3.043-3.043,3.043c-1.681,0-3.043-1.362-3.043-3.043
				c0-1.681,1.363-3.043,3.043-3.043C373.701,162.907,375.064,164.269,375.064,165.95z"/>
			<circle style="fill:#FC5EFC;" cx="364.716" cy="224.382" r="3.652"/>
			<circle style="fill:#FC5EFC;" cx="399.523" cy="196.155" r="3.043"/>
			
				<line style="fill:none;stroke:#6E36FF;stroke-width:1.5;stroke-miterlimit:10;" x1="381.15" y1="175.993" x2="381.15" y2="303.157"/>
			
				<line style="fill:none;stroke:#6E36FF;stroke-width:1.5;stroke-miterlimit:10;" x1="360.456" y1="190.297" x2="381.455" y2="212.209"/>
			
				<line style="fill:none;stroke:#6E36FF;stroke-width:1.5;stroke-miterlimit:10;" x1="381.683" y1="252.913" x2="393.324" y2="243.251"/>
			
				<line style="fill:none;stroke:#6E36FF;stroke-width:1.5;stroke-miterlimit:10;" x1="373.238" y1="166.863" x2="381.227" y2="176.45"/>
			
				<line style="fill:none;stroke:#6E36FF;stroke-width:1.5;stroke-miterlimit:10;" x1="396.063" y1="177.819" x2="381.455" y2="190.601"/>
			
				<line style="fill:none;stroke:#6E36FF;stroke-width:1.5;stroke-miterlimit:10;" x1="398.497" y1="197.296" x2="380.846" y2="218.296"/>
			
				<line style="fill:none;stroke:#6E36FF;stroke-width:1.5;stroke-miterlimit:10;" x1="365.934" y1="225.599" x2="381.15" y2="238.686"/>
		</g>
	</g>
	<g>
		<g>
			<g>
				<path style="fill:#FFFFFF;" d="M146.289,141.424c-0.101,0.59-0.162,1.182-0.19,1.767l2.922,1.107l0.451,3.065l-2.477,1.905
					c0.407,1.139,0.946,2.22,1.599,3.227l3.017-0.826l2.17,2.213l-0.885,3.002c0.954,0.649,1.99,1.2,3.094,1.628l1.97-2.434
					l3.053,0.539l1.03,2.958c1.222-0.032,2.418-0.204,3.569-0.509l0.161-3.125l2.786-1.363l2.57,1.78
					c0.95-0.729,1.819-1.568,2.584-2.508l-1.702-2.619l1.447-2.739l3.126-0.073c0.175-0.592,0.321-1.203,0.428-1.833
					c0.093-0.575,0.155-1.146,0.188-1.713l-2.922-1.116l-0.441-3.067l2.49-1.897c-0.409-1.14-0.943-2.231-1.595-3.24l-3.02,0.816
					l-2.163-2.219l0.898-3c-0.984-0.671-2.049-1.241-3.188-1.679l-1.963,2.442l-3.055-0.526l-1.036-2.955
					c-1.222,0.037-2.417,0.216-3.568,0.523l-0.152,3.125l-2.78,1.375l-2.575-1.773c-0.951,0.735-1.819,1.576-2.579,2.516
					l1.716,2.613l-1.438,2.75l-3.129,0.078C146.53,140.22,146.389,140.816,146.289,141.424z M158.165,137.957
					c3.335-1.922,7.606-0.788,9.536,2.564c1.917,3.346,0.774,7.61-2.57,9.527c-3.335,1.935-7.606,0.788-9.529-2.551
					C153.667,144.149,154.823,139.879,158.165,137.957z"/>
			</g>
		</g>
		<g>
			<g>
				<path style="fill:#1C8BF9;" d="M161.781,175.811c-0.071,0.416-0.114,0.833-0.134,1.246l2.061,0.781l0.318,2.162l-1.747,1.343
					c0.287,0.803,0.667,1.566,1.127,2.275l2.127-0.582l1.53,1.56l-0.624,2.117c0.673,0.457,1.403,0.846,2.182,1.148l1.389-1.716
					l2.153,0.38l0.726,2.086c0.861-0.022,1.705-0.144,2.516-0.359l0.114-2.204l1.965-0.961l1.813,1.255
					c0.67-0.514,1.283-1.106,1.822-1.768l-1.2-1.847l1.021-1.931l2.204-0.052c0.123-0.417,0.227-0.848,0.302-1.292
					c0.066-0.406,0.109-0.808,0.132-1.208l-2.06-0.787l-0.311-2.163l1.756-1.337c-0.288-0.804-0.665-1.573-1.125-2.285l-2.13,0.576
					l-1.525-1.565l0.633-2.115c-0.694-0.473-1.445-0.875-2.248-1.184l-1.384,1.722l-2.154-0.371l-0.73-2.084
					c-0.862,0.026-1.704,0.152-2.516,0.369l-0.108,2.204l-1.96,0.969l-1.816-1.25c-0.671,0.518-1.283,1.111-1.818,1.774l1.21,1.843
					l-1.014,1.939l-2.207,0.055C161.951,174.962,161.852,175.382,161.781,175.811z M170.156,173.366
					c2.352-1.355,5.363-0.556,6.725,1.808c1.352,2.36,0.546,5.366-1.812,6.718c-2.352,1.364-5.363,0.556-6.719-1.799
					C166.984,177.732,167.799,174.721,170.156,173.366z"/>
			</g>
		</g>
		<g>
			<g>
				<path style="fill:#FC5EFC;" d="M97.502,171.566c-0.154,1.028-0.237,2.056-0.265,3.072l5.11,1.814l0.895,5.301l-4.228,3.395
					c0.748,1.961,1.723,3.817,2.892,5.539l5.203-1.544l3.845,3.759l-1.425,5.24c1.678,1.09,3.496,2.009,5.427,2.71l3.327-4.295
					l5.316,0.822l1.896,5.093c2.118-0.1,4.186-0.443,6.171-1.014l0.165-5.427l4.782-2.467l4.524,2.993
					c1.621-1.3,3.098-2.787,4.389-4.445l-3.049-4.481l2.41-4.805l5.42-0.243c0.281-1.033,0.513-2.099,0.674-3.195
					c0.141-1.002,0.226-1.993,0.263-2.979l-5.11-1.829l-0.877-5.304l4.249-3.382c-0.751-1.963-1.717-3.835-2.887-5.562l-5.209,1.527
					l-3.834-3.77l1.447-5.237c-1.732-1.128-3.601-2.077-5.592-2.796l-3.315,4.308l-5.319-0.8l-1.906-5.088
					c-2.118,0.109-4.185,0.463-6.17,1.038l-0.149,5.427l-4.771,2.487l-4.532-2.98c-1.623,1.311-3.098,2.801-4.381,4.459l3.074,4.47
					l-2.394,4.823l-5.425,0.25C97.875,169.469,97.653,170.508,97.502,171.566z M117.975,165.115
					c5.715-3.456,13.166-1.648,16.637,4.096c3.448,5.734,1.623,13.172-4.107,16.622c-5.714,3.479-13.165,1.647-16.624-4.075
					C110.401,176.021,112.249,168.572,117.975,165.115z"/>
			</g>
		</g>
	</g>
	<g style="opacity:0.34;">
		<g>
			<polygon style="fill:#FFFFFF;" points="370.668,119.89 370.668,107.872 360.26,101.863 349.852,107.872 349.852,119.89 
				360.26,125.899 			"/>
			<polygon style="fill:#FFFFFF;" points="347.849,119.89 347.849,107.872 337.441,101.863 327.033,107.872 327.033,119.89 
				337.441,125.899 			"/>
			<polygon style="fill:#FFFFFF;" points="359.463,100.229 359.463,88.211 349.055,82.202 338.647,88.211 338.647,100.229 
				349.055,106.238 			"/>
			<polygon style="fill:#FFFFFF;" points="359.463,139.552 359.463,127.534 349.055,121.525 338.647,127.534 338.647,139.552 
				349.055,145.561 			"/>
		</g>
		<g>
			<polygon style="fill:#FFFFFF;" points="415.513,119.89 415.513,107.872 405.105,101.863 394.697,107.872 394.697,119.89 
				405.105,125.899 			"/>
			<polygon style="fill:#FFFFFF;" points="392.694,119.89 392.694,107.872 382.286,101.863 371.878,107.872 371.878,119.89 
				382.286,125.899 			"/>
			<polygon style="fill:#FFFFFF;" points="404.308,100.229 404.308,88.211 393.9,82.202 383.492,88.211 383.492,100.229 
				393.9,106.238 			"/>
			<polygon style="fill:#FFFFFF;" points="426.718,139.552 426.718,127.534 416.31,121.525 405.902,127.534 405.902,139.552 
				416.31,145.561 			"/>
			<polygon style="fill:#FFFFFF;" points="404.308,139.552 404.308,127.534 393.9,121.525 383.492,127.534 383.492,139.552 
				393.9,145.561 			"/>
		</g>
	</g>
	<g style="opacity:0.34;">
		<g>
			<polygon style="fill:#FFFFFF;" points="150.199,85.062 150.199,74.559 141.103,69.308 132.007,74.559 132.007,85.062 
				141.103,90.314 			"/>
			<polygon style="fill:#FFFFFF;" points="130.256,85.062 130.256,74.559 121.16,69.308 112.064,74.559 112.064,85.062 
				121.16,90.314 			"/>
			<polygon style="fill:#FFFFFF;" points="140.406,67.879 140.406,57.376 131.311,52.125 122.215,57.376 122.215,67.879 
				131.311,73.131 			"/>
			<polygon style="fill:#FFFFFF;" points="140.406,102.245 140.406,91.742 131.311,86.491 122.215,91.742 122.215,102.245 
				131.311,107.497 			"/>
		</g>
		<g>
			<polygon style="fill:#FFFFFF;" points="189.391,85.062 189.391,74.559 180.295,69.308 171.199,74.559 171.199,85.062 
				180.295,90.314 			"/>
			<polygon style="fill:#FFFFFF;" points="169.448,85.062 169.448,74.559 160.352,69.308 151.256,74.559 151.256,85.062 
				160.352,90.314 			"/>
			<polygon style="fill:#FFFFFF;" points="179.599,67.879 179.599,57.376 170.503,52.125 161.407,57.376 161.407,67.879 
				170.503,73.131 			"/>
			<polygon style="fill:#FFFFFF;" points="199.184,102.245 199.184,91.742 190.088,86.491 180.992,91.742 180.992,102.245 
				190.088,107.497 			"/>
			<polygon style="fill:#FFFFFF;" points="179.599,102.245 179.599,91.742 170.503,86.491 161.407,91.742 161.407,102.245 
				170.503,107.497 			"/>
		</g>
	</g>
	<g style="opacity:0.34;">
		<g>
			<polygon style="fill:#FFFFFF;" points="272.842,428.267 280.269,420.841 277.551,410.695 267.406,407.977 259.979,415.404 
				262.697,425.549 			"/>
			<polygon style="fill:#FFFFFF;" points="258.741,414.165 266.167,406.739 263.449,396.593 253.304,393.875 245.877,401.302 
				248.595,411.447 			"/>
			<polygon style="fill:#FFFFFF;" points="278.068,409.193 285.495,401.766 282.777,391.621 272.632,388.902 265.205,396.329 
				267.923,406.474 			"/>
			<polygon style="fill:#FFFFFF;" points="253.768,433.493 261.195,426.066 258.476,415.921 248.331,413.203 240.904,420.629 
				243.623,430.775 			"/>
		</g>
		<g>
			<polygon style="fill:#FFFFFF;" points="300.556,455.98 307.982,448.554 305.264,438.408 295.119,435.69 287.692,443.117 
				290.41,453.262 			"/>
			<polygon style="fill:#FFFFFF;" points="286.454,441.879 293.88,434.452 291.162,424.306 281.017,421.588 273.59,429.015 
				276.309,439.16 			"/>
			<polygon style="fill:#FFFFFF;" points="305.781,436.906 313.208,429.479 310.49,419.334 300.345,416.615 292.918,424.042 
				295.636,434.187 			"/>
			<polygon style="fill:#FFFFFF;" points="295.33,475.055 302.757,467.628 300.038,457.483 289.893,454.765 282.466,462.191 
				285.184,472.337 			"/>
			<polygon style="fill:#FFFFFF;" points="281.481,461.206 288.908,453.779 286.189,443.634 276.044,440.916 268.617,448.343 
				271.336,458.488 			"/>
		</g>
	</g>
	<g>
		
			<ellipse transform="matrix(0.6766 -0.7364 0.7364 0.6766 -155.1682 345.6195)" style="fill:#FC5EFC;" cx="315.864" cy="349.451" rx="9.256" ry="9.256"/>
		<path style="fill:#FC5EFC;" d="M308.278,330.097c0,1.636-1.326,2.962-2.962,2.962c-1.636,0-2.962-1.326-2.962-2.962
			c0-1.636,1.326-2.962,2.962-2.962C306.952,327.135,308.278,328.461,308.278,330.097z"/>
		<path style="fill:#FC5EFC;" d="M342.165,345.349c0,1.636-1.326,2.962-2.962,2.962c-1.636,0-2.962-1.326-2.962-2.962
			c0-1.636,1.326-2.962,2.962-2.962C340.839,342.387,342.165,343.713,342.165,345.349z"/>
		<line style="fill:none;stroke:#6E36FF;stroke-miterlimit:10;" x1="324.413" y1="350.102" x2="338.066" y2="345.721"/>
		<path style="fill:#FC5EFC;" d="M307.614,368.096c-0.997-0.619-1.305-1.929-0.686-2.926c0.619-0.997,1.929-1.305,2.926-0.686
			c0.997,0.619,1.304,1.929,0.686,2.926C309.921,368.408,308.611,368.715,307.614,368.096z"/>
		<line style="fill:none;stroke:#6E36FF;stroke-miterlimit:10;" x1="311.43" y1="355.474" x2="308.937" y2="365.456"/>
		<line style="fill:none;stroke:#6E36FF;stroke-miterlimit:10;" x1="310.624" y1="343.418" x2="305.316" y2="330.097"/>
	</g>
	<g>
		<path style="fill:#1C8BF9;" d="M280.978,97.249c0-3.811,3.09-6.901,6.901-6.901s6.901,3.09,6.901,6.901
			c0,3.811-3.09,6.901-6.901,6.901S280.978,101.06,280.978,97.249z"/>
		<path style="fill:#1C8BF9;" d="M293.534,111.679c0-1.22,0.989-2.208,2.208-2.208c1.219,0,2.208,0.989,2.208,2.208
			c0,1.22-0.989,2.208-2.208,2.208C294.523,113.887,293.534,112.898,293.534,111.679z"/>
		<path style="fill:#1C8BF9;" d="M268.269,100.307c0-1.22,0.989-2.208,2.208-2.208c1.219,0,2.208,0.989,2.208,2.208
			c0,1.22-0.989,2.208-2.208,2.208C269.258,102.516,268.269,101.527,268.269,100.307z"/>
		<line style="fill:none;stroke:#280069;stroke-miterlimit:10;" x1="281.505" y1="96.764" x2="271.325" y2="100.03"/>
		<path style="fill:#1C8BF9;" d="M294.03,83.348c0.744,0.461,0.973,1.438,0.511,2.182c-0.461,0.744-1.438,0.973-2.182,0.511
			c-0.744-0.461-0.973-1.438-0.511-2.182C292.31,83.116,293.286,82.887,294.03,83.348z"/>
		<line style="fill:none;stroke:#280069;stroke-miterlimit:10;" x1="291.185" y1="92.759" x2="293.044" y2="85.316"/>
		<line style="fill:none;stroke:#280069;stroke-miterlimit:10;" x1="291.786" y1="101.747" x2="295.743" y2="111.679"/>
	</g>
	<g>
		<path style="fill:#1C8BF9;" d="M263.805,392.691c1.58,1.637,1.534,4.244-0.102,5.824c-1.637,1.58-4.244,1.534-5.824-0.102
			c-1.58-1.637-1.534-4.244,0.102-5.824C259.617,391.009,262.225,391.055,263.805,392.691z"/>
		<path style="fill:#1C8BF9;" d="M252.431,391.701c0.506,0.524,0.491,1.358-0.033,1.864c-0.524,0.506-1.358,0.491-1.864-0.033
			c-0.506-0.524-0.491-1.358,0.033-1.864C251.091,391.163,251.925,391.178,252.431,391.701z"/>
		<path style="fill:#1C8BF9;" d="M267.994,386.109c0.506,0.524,0.491,1.358-0.033,1.864c-0.524,0.506-1.358,0.491-1.864-0.033
			c-0.506-0.524-0.491-1.358,0.033-1.864C266.654,385.571,267.489,385.586,267.994,386.109z"/>
		<line style="fill:none;stroke:#280069;stroke-miterlimit:10;" x1="263.78" y1="393.118" x2="266.797" y2="387.495"/>
		<path style="fill:#1C8BF9;" d="M263.964,404.072c-0.51,0.11-1.014-0.214-1.124-0.725c-0.11-0.511,0.214-1.014,0.725-1.124
			c0.51-0.11,1.014,0.214,1.124,0.725C264.799,403.459,264.475,403.962,263.964,404.072z"/>
		<line style="fill:none;stroke:#280069;stroke-miterlimit:10;" x1="261.284" y1="398.852" x2="263.572" y2="402.818"/>
		<line style="fill:none;stroke:#280069;stroke-miterlimit:10;" x1="257.299" y1="395.241" x2="251.482" y2="392.617"/>
	</g>
</g>
</svg>
