<?xml version="1.0" encoding="utf-8"?>
<!-- Generator: Adobe Illustrator 27.5.0, SVG Export Plug-In . SVG Version: 6.00 Build 0)  -->
<svg version="1.1" xmlns="http://www.w3.org/2000/svg" xmlns:xlink="http://www.w3.org/1999/xlink" x="0px" y="0px"
	 viewBox="0 0 3710 3710" style="enable-background:new 0 0 3710 3710;" xml:space="preserve">
<g id="Background">
	<g>
		<g>
			<rect style="fill:#FFFFFF;" width="3710" height="3710"/>
		</g>
	</g>
</g>
<g id="Illustration">
	<g>
		<linearGradient id="SVGID_1_" gradientUnits="userSpaceOnUse" x1="3599.49" y1="4060.083" x2="1123.4918" y2="985.0486">
			<stop  offset="0" style="stop-color:#DAE3FE"/>
			<stop  offset="1" style="stop-color:#E9EFFD"/>
		</linearGradient>
		<path style="fill:url(#SVGID_1_);" d="M2918.327,2847.401c-56.873,59.873-110.685,98.485-153.201,128.99
			c-499.769,358.59-1091.128,254.063-1216.809,228.536c-185.591-37.694-544.333-110.557-803.698-415.564
			c-392.397-461.451-331.295-1188.453-26.925-1668.358c55.674-87.783,349.76-574.997,947.489-653.131
			c361.739-47.286,783.41,48.084,1088.773,303.917C3394.939,1308.808,3349.308,2393.678,2918.327,2847.401z"/>
		<g>
			
				<linearGradient id="SVGID_00000167353936219660553180000016156849289870159774_" gradientUnits="userSpaceOnUse" x1="1821.8069" y1="690.5549" x2="-434.2289" y2="3653.7949" gradientTransform="matrix(1 0.0121 -0.0121 1 563.391 122.0899)">
				<stop  offset="0" style="stop-color:#09005D"/>
				<stop  offset="1" style="stop-color:#1A0F91"/>
			</linearGradient>
			<path style="fill:url(#SVGID_00000167353936219660553180000016156849289870159774_);" d="M759.307,771.552l1423.231,17.157
				c78.519,0.947,142.521,63.259,145.568,141.725l80.18,2064.685c2.385,61.402-46.545,112.58-107.992,112.956l-1631.558,9.983
				c-57.738,0.353-104.536-46.724-103.84-104.458L589.93,936.893C591.045,844.463,666.878,770.438,759.307,771.552z"/>
			<path style="fill:#91B3FA;" d="M907.609,3085.309c-0.026,0-0.056,0-0.085-0.002l-182.495-4.562
				c-60.723-1.517-109.526-52.166-108.796-112.906l3.319-275.575c0.023-1.837,1.519-3.311,3.352-3.311c0.013,0,0.026,0,0.039,0
				c1.853,0.023,3.336,1.542,3.313,3.393l-3.319,275.575c-0.688,57.089,45.186,104.696,102.262,106.123l182.495,4.562
				c1.85,0.046,3.313,1.583,3.267,3.434C910.916,3083.862,909.423,3085.309,907.609,3085.309z"/>
			<path style="fill:#91B3FA;" d="M623.936,2610.296c-0.013,0-0.026,0-0.039,0c-1.853-0.023-3.336-1.542-3.313-3.393l0.537-44.626
				c0.023-1.837,1.519-3.311,3.352-3.311c0.013,0,0.026,0,0.039,0c1.853,0.023,3.336,1.542,3.313,3.393l-0.537,44.626
				C627.265,2608.821,625.769,2610.296,623.936,2610.296z"/>
			<g>
				
					<linearGradient id="SVGID_00000065761780423399569420000002892384024009632395_" gradientUnits="userSpaceOnUse" x1="694.7265" y1="1896.057" x2="2311.4739" y2="1896.057">
					<stop  offset="0" style="stop-color:#4F52FF"/>
					<stop  offset="1" style="stop-color:#4042E2"/>
				</linearGradient>
				<path style="fill:url(#SVGID_00000065761780423399569420000002892384024009632395_);" d="M763.886,754.879
					c194.038,28.699,861.391,118.271,1414.475,82.515c25.222-1.631,46.862,17.725,47.899,42.98l85.17,2073.943
					c1.168,28.437-20.826,52.478-49.256,53.816c-232.567,10.952-1190.31,52.58-1531.263,12.708
					c-20.751-2.427-36.312-20.11-36.183-41.002L708.164,802.7C708.347,773.125,734.629,750.552,763.886,754.879z"/>
				<path style="fill:#BDD0FB;" d="M784.055,808.894c186.731,27.618,828.954,113.818,1361.211,79.407
					c24.273-1.569,45.097,17.058,46.095,41.361l81.963,1995.849c1.124,27.366-20.042,50.501-47.401,51.79
					c-223.809,10.539-1145.489,50.6-1473.602,12.229c-19.97-2.336-34.945-19.353-34.82-39.458l12.931-2095.158
					C730.607,826.453,755.9,804.729,784.055,808.894z"/>
				<path style="opacity:0.78;fill:#FFFFFF;" d="M901.721,1010.78l14.71,427.856c0.489,14.23,11.842,25.677,26.069,26.25
					c79.168,3.188,325.87,12.182,465.296,6.598c15.772-0.632,28.394-13.232,29.107-29.001
					c3.624-80.162,12.252-313.502-4.846-411.296c-2.762-15.797-16.17-27.509-32.189-28.262l-467.898-22.013
					C915.096,980.119,901.141,993.899,901.721,1010.78z"/>
				<path style="fill:#91B3FA;" d="M1261.154,1168.018c-0.612,50.768-42.264,91.428-93.032,90.816
					c-50.768-0.612-91.428-42.263-90.816-93.032c0.612-50.769,42.264-91.428,93.032-90.817
					C1221.106,1075.597,1261.766,1117.249,1261.154,1168.018z"/>
				<path style="fill:#91B3FA;" d="M1026.349,1435.113l292.859,3.531c17.955,0.216,28.952-19.48,19.466-34.726
					c-24.407-39.224-75.763-97.034-165.931-95.541c-86.902,1.44-139.016,52.472-165.347,89.204
					C996.218,1413.174,1007.165,1434.882,1026.349,1435.113z"/>
				<g style="opacity:0.6;">
					<path style="fill:#FFFFFF;" d="M2075.647,1062.16c7.374,0.089,13.304-5.871,13.178-13.245l-0.032-1.887
						c-0.126-7.374-6.261-13.587-13.633-13.807l-519.727-15.53c-7.372-0.22-11.467,5.315-9.101,12.3l4.469,13.195
						c2.366,6.985,10.335,12.773,17.709,12.862L2075.647,1062.16z"/>
				</g>
				<g style="opacity:0.6;">
					<path style="fill:#FFFFFF;" d="M1554.472,1097.408c-7.372-0.22-11.467,5.315-9.101,12.3l4.469,13.195
						c2.366,6.985,10.335,12.773,17.709,12.862l507.137,6.114c7.375,0.089,13.304-5.871,13.178-13.245l-0.032-1.887
						c-0.126-7.374-6.261-13.587-13.633-13.807L1554.472,1097.408z"/>
				</g>
				<g style="opacity:0.6;">
					<path style="fill:#FFFFFF;" d="M1553.497,1178.285c-7.372-0.22-11.467,5.314-9.101,12.299l4.469,13.195
						c2.366,6.985,10.335,12.773,17.709,12.862l507.137,6.114c7.374,0.089,13.304-5.871,13.178-13.245l-0.032-1.887
						c-0.126-7.374-6.261-13.587-13.633-13.807L1553.497,1178.285z"/>
				</g>
				<g style="opacity:0.6;">
					<path style="fill:#FFFFFF;" d="M2118.868,1613.384c7.375,0.089,13.083-5.864,12.686-13.228l-0.104-1.934
						c-0.397-7.364-6.755-13.51-14.128-13.657L908.365,1560.46c-7.373-0.147-9.705,4.498-5.181,10.322l13.687,17.622
						c4.524,5.824,14.259,10.662,21.633,10.751L2118.868,1613.384z"/>
				</g>
				<g style="opacity:0.6;">
					<path style="fill:#FFFFFF;" d="M907.404,1640.177c-7.373-0.147-9.705,4.498-5.181,10.322l13.688,17.622
						c4.524,5.824,14.259,10.662,21.633,10.751l1180.362,14.229c7.374,0.089,13.083-5.864,12.686-13.228l-0.104-1.935
						c-0.397-7.364-6.755-13.51-14.128-13.657L907.404,1640.177z"/>
				</g>
			</g>
			
				<linearGradient id="SVGID_00000125599027690942655990000007696163398703367602_" gradientUnits="userSpaceOnUse" x1="896.1062" y1="-426.3276" x2="250.7159" y2="422.6682" gradientTransform="matrix(0.918 0.3967 -0.3967 0.918 829.8821 440.8249)">
				<stop  offset="0" style="stop-color:#09005D"/>
				<stop  offset="1" style="stop-color:#1A0F91"/>
			</linearGradient>
			<path style="fill:url(#SVGID_00000125599027690942655990000007696163398703367602_);" d="M1562.584,499.858
				c-50.978-36.384-95.687-36.214-127.267-27.308c-28.807,8.124-47.746,35.613-45.374,65.451l11.784,148.285l161.31,16.277
				C1563.037,702.562,1662.56,571.212,1562.584,499.858z M1490.129,618.499c-22.238-0.268-40.048-18.512-39.779-40.75
				c0.268-22.238,18.512-40.048,40.75-39.781c22.238,0.268,40.049,18.513,39.78,40.752
				C1530.612,600.958,1512.368,618.767,1490.129,618.499z"/>
			<path style="fill:#91B3FA;" d="M1418.657,623.624c-1.732,0-3.198-1.331-3.339-3.087l-1.876-23.613
				c-0.147-1.845,1.231-3.46,3.077-3.608c1.846-0.131,3.46,1.231,3.608,3.077l1.876,23.613c0.147,1.845-1.231,3.46-3.077,3.607
				C1418.837,623.621,1418.745,623.624,1418.657,623.624z M1414.977,577.35c-1.732,0-3.198-1.331-3.339-3.087l-1.424-17.931
				c-2.236-28.165,15.779-54.146,42.839-61.78c19.252-5.431,39.028-6.007,58.788-1.707c1.807,0.393,2.956,2.179,2.563,3.987
				c-0.399,1.81-2.164,2.961-3.991,2.563c-18.663-4.058-37.352-3.519-55.541,1.609c-23.989,6.768-39.961,29.813-37.974,54.797
				l1.424,17.931c0.147,1.845-1.231,3.46-3.077,3.607C1415.157,577.346,1415.066,577.35,1414.977,577.35z"/>
			
				<linearGradient id="SVGID_00000126310963087854221360000017512630390360399782_" gradientUnits="userSpaceOnUse" x1="1234.2375" y1="207.7539" x2="579.5731" y2="1068.9495" gradientTransform="matrix(1 0.0121 -0.0121 1 563.391 122.0899)">
				<stop  offset="0" style="stop-color:#09005D"/>
				<stop  offset="1" style="stop-color:#1A0F91"/>
			</linearGradient>
			<path style="fill:url(#SVGID_00000126310963087854221360000017512630390360399782_);" d="M1180.178,779.351l0.898-74.471
				c0.31-25.708,21.865-46.04,47.547-44.85l513.231,23.781c22.777,1.055,41.013,19.263,42.103,42.039l3.428,71.607L1180.178,779.351
				z"/>
			<path style="fill:#91B3FA;" d="M1372.783,689.289h-0.039l-22.084-0.267c-1.853-0.023-3.336-1.542-3.313-3.393
				c0.023-1.85,1.496-3.475,3.391-3.311l22.084,0.267c1.853,0.023,3.336,1.542,3.313,3.393
				C1376.113,687.814,1374.617,689.289,1372.783,689.289z"/>
			<path style="fill:#91B3FA;" d="M1208.3,755.756c0,0-0.026,0-0.039,0c-1.853-0.023-3.336-1.542-3.313-3.393l0.363-30.124
				c0.134-11.129,4.593-21.541,12.558-29.317c7.961-7.773,18.45-11.982,29.61-11.849l81.18,0.977
				c1.853,0.023,3.336,1.542,3.313,3.393c-0.023,1.85-1.591,3.172-3.391,3.311l-81.18-0.977c-9.245-0.052-18.162,3.419-24.847,9.942
				c-6.685,6.524-10.427,15.262-10.538,24.6l-0.363,30.126C1211.629,754.282,1210.133,755.756,1208.3,755.756z"/>
			
				<linearGradient id="SVGID_00000162338272350006667960000010209030656954719121_" gradientUnits="userSpaceOnUse" x1="968.1982" y1="818.6889" x2="1983.6497" y2="818.6889">
				<stop  offset="0" style="stop-color:#4F52FF"/>
				<stop  offset="1" style="stop-color:#4042E2"/>
			</linearGradient>
			<path style="fill:url(#SVGID_00000162338272350006667960000010209030656954719121_);" d="M1019.627,750.156l897.852,10.799
				c32.284,0.388,59.605,23.954,64.728,55.832l0.707,4.399c5.612,34.917-21.599,66.463-56.961,66.036l-921.144-11.104
				c-21.162-0.255-37.813-18.153-36.543-39.279l2.479-41.204C972.295,769.861,993.808,749.846,1019.627,750.156z"/>
		</g>
		<path style="opacity:0.78;fill:#FFFFFF;" d="M2279.779,3020.449c-0.192,0-0.382-0.005-0.576-0.014
			c-5.82-0.292-10.441-4.952-10.623-10.712l-10.791-342.418l-25.297,168.94c-0.831,5.557-5.793,9.603-11.423,9.443
			c-5.681-0.174-10.327-4.529-10.808-10.128l-21.4-249.012l-27.572,295.115c-0.457,4.89-4.116,8.899-8.993,9.845
			c-4.857,0.946-9.795-1.397-12.088-5.754l-74.198-141.007h-748.328l-44.996,244.639c-0.987,5.37-5.793,9.225-11.302,9.086
			c-5.518-0.139-10.109-4.234-10.818-9.647l-58.634-448.125l-57.898,171.982c-1.697,5.042-6.799,8.177-12.105,7.477
			c-5.328-0.704-9.398-5.05-9.698-10.356l-11.878-210.298l-66.08,376.059c-0.901,5.133-5.302,8.95-10.566,9.167
			c-5.234,0.199-9.97-3.224-11.3-8.267l-50.305-190.671l-43.479,85.249c-1.904,3.731-5.771,6.085-9.998,6.085H739.081
			c-6.184,0-11.197-4.956-11.197-11.071c0-6.114,5.013-11.071,11.197-11.071h162.651l53.723-105.336
			c2.097-4.112,6.552-6.514,11.181-6.023c4.633,0.487,8.475,3.758,9.651,8.214l44.759,169.649l73.996-421.117
			c0.974-5.545,6.009-9.488,11.682-9.156c5.682,0.327,10.211,4.816,10.53,10.434l14.065,248.993l54.818-162.833
			c1.649-4.899,6.508-8.021,11.7-7.522c5.198,0.496,9.357,4.478,10.028,9.599l55.673,425.496l33.786-183.687
			c0.968-5.264,5.604-9.09,11.016-9.09h764.468c4.177,0,8.006,2.298,9.933,5.961l59.755,113.561l35.685-381.945
			c0.532-5.697,5.365-10.052,11.148-10.052c0,0,0.027,0,0.041,0c5.8,0.022,10.624,4.419,11.114,10.134l23.946,278.649L2254,2541.432
			c0.848-5.67,5.861-9.757,11.724-9.431c5.788,0.333,10.363,4.978,10.543,10.708l10.446,331.46l31.476-233.377
			c0.744-5.502,5.489-9.608,11.1-9.608c0,0,0.02,0,0.031,0c5.623,0.016,10.361,4.152,11.075,9.667l23.397,180.973l22.07-85.179
			c1.222-4.717,5.418-8.092,10.339-8.313c4.969-0.213,9.411,2.765,11.058,7.353l72.565,201.894l75.916-200.17
			c1.64-4.321,5.817-7.184,10.485-7.184h157.93c6.184,0,11.197,4.956,11.197,11.071s-5.013,11.071-11.197,11.071h-150.172
			l-83.956,221.375c-1.652,4.355-5.885,7.113-10.582,7.184c-4.702-0.041-8.879-2.983-10.453-7.364l-70.543-196.271l-27.491,106.102
			c-1.334,5.145-6.179,8.638-11.54,8.302c-5.363-0.328-9.731-4.376-10.414-9.645l-19.951-154.308l-38.183,283.1
			C2290.125,3016.365,2285.355,3020.449,2279.779,3020.449z"/>
		<path style="opacity:0.78;fill:#FFFFFF;" d="M2348.357,2432.731c-0.192,0-0.381-0.005-0.576-0.014
			c-5.819-0.292-10.441-4.952-10.623-10.712l-10.791-342.418l-25.297,168.94c-0.831,5.557-5.793,9.603-11.423,9.443
			c-5.681-0.174-10.327-4.529-10.808-10.128l-21.4-249.013l-27.572,295.116c-0.457,4.89-4.116,8.899-8.993,9.845
			c-4.857,0.946-9.795-1.397-12.088-5.754l-74.198-141.007h-748.328l-44.996,244.639c-0.986,5.37-5.793,9.224-11.302,9.086
			c-5.518-0.139-10.109-4.234-10.818-9.647l-58.634-448.125l-57.898,171.982c-1.697,5.042-6.799,8.177-12.106,7.477
			c-5.328-0.704-9.397-5.05-9.698-10.356l-11.878-210.298l-66.08,376.059c-0.901,5.133-5.302,8.95-10.566,9.167
			c-5.234,0.199-9.97-3.224-11.3-8.267l-50.305-190.671l-43.479,85.249c-1.904,3.731-5.771,6.085-9.998,6.085l-226.969,1.407
			c-6.184,0-18.437-3.104-18.437-9.219c0-6.114,10.577-14.247,16.761-14.247l221.752-0.083l53.723-105.336
			c2.097-4.112,6.552-6.514,11.181-6.023c4.633,0.487,8.475,3.758,9.651,8.214l44.759,169.649l73.996-421.117
			c0.974-5.545,6.009-9.488,11.682-9.156c5.682,0.327,10.211,4.816,10.53,10.434l14.065,248.993l54.818-162.833
			c1.649-4.899,6.508-8.021,11.7-7.522c5.198,0.496,9.357,4.478,10.028,9.599l55.673,425.495l33.786-183.687
			c0.968-5.264,5.604-9.09,11.016-9.09h764.468c4.177,0,8.007,2.298,9.933,5.961l59.755,113.561l35.685-381.945
			c0.532-5.696,5.365-10.052,11.148-10.052c0.015,0,0.027,0,0.041,0c5.8,0.022,10.623,4.42,11.114,10.134l23.946,278.649
			l29.571-197.482c0.848-5.67,5.861-9.757,11.724-9.431c5.788,0.333,10.363,4.978,10.543,10.708l10.446,331.46l31.476-233.377
			c0.744-5.502,5.489-9.608,11.1-9.608c0,0,0.02,0,0.031,0c5.623,0.016,10.361,4.152,11.075,9.667l23.397,180.973l22.07-85.179
			c1.222-4.717,5.419-8.092,10.339-8.313c4.969-0.213,9.411,2.765,11.058,7.353l72.565,201.894l75.916-200.171
			c1.64-4.321,5.817-7.183,10.485-7.183h157.93c6.184,0,11.197,4.956,11.197,11.071c0,6.114-5.013,11.071-11.197,11.071h-150.172
			l-83.956,221.375c-1.652,4.354-5.885,7.113-10.582,7.184c-4.702-0.041-8.879-2.983-10.453-7.364l-70.543-196.271l-27.491,106.103
			c-1.334,5.145-6.179,8.638-11.539,8.302c-5.363-0.328-9.731-4.376-10.414-9.645l-19.952-154.308l-38.183,283.099
			C2358.704,2428.646,2353.934,2432.731,2348.357,2432.731z"/>
		<g>
			
				<linearGradient id="SVGID_00000088106980191341584880000007500996649817213373_" gradientUnits="userSpaceOnUse" x1="1993.0879" y1="3041.4688" x2="2430.5286" y2="1196.1724">
				<stop  offset="0" style="stop-color:#E1473D"/>
				<stop  offset="1" style="stop-color:#E9605A"/>
			</linearGradient>
			<path style="fill:url(#SVGID_00000088106980191341584880000007500996649817213373_);" d="M2960.643,2412.497
				c12.816-297.993,1.436-827.353-278.532-889.162c0,0,11.733-43.608,58.697-23.49c46.964,20.118,109.865,67.906,109.865,67.906
				s192.01-140.076,97.224-291.842c0,0-371.514-138.3-522.457-126.534C2274.499,1161.141,2080,1453,1965.13,1542.748
				c-114.87,89.748-494.709,295.267-565.971,396.747c0,0-119.865,296.039,16.014,465.408
				c135.88,169.369,521.667,404.104,792.559,582.674c270.892,178.57,458.731,161.765,557.671,92.985
				c98.94-68.781,178.553-368.167,183.565-477.183C2950.169,2577.266,2956.606,2506.358,2960.643,2412.497L2960.643,2412.497z"/>
			
				<linearGradient id="SVGID_00000132805923628769011770000016560773371955423926_" gradientUnits="userSpaceOnUse" x1="2574.3577" y1="814.1717" x2="3072.1335" y2="-276.9118">
				<stop  offset="0" style="stop-color:#E1473D"/>
				<stop  offset="1" style="stop-color:#E9605A"/>
			</linearGradient>
			<path style="fill:url(#SVGID_00000132805923628769011770000016560773371955423926_);" d="M1950.008,1383.421
				c0,0,125.364,150.969,218.675,173.571c93.311,22.602,107.549-75.514,121.796-124.993
				c14.247-49.478,95.524-417.628,282.54-351.414l22.649,44.441c0,0,117.418,98.931,254.929,4.987
				c0,0,62.843-292.675-108.243-379.857C2571.268,662.974,2116.734,523.849,1950.008,1383.421z"/>
			
				<linearGradient id="SVGID_00000015351206805400696070000006353869980181582477_" gradientUnits="userSpaceOnUse" x1="2417.6785" y1="30.2461" x2="1950.0692" y2="1156.5297">
				<stop  offset="0" style="stop-color:#E1473D"/>
				<stop  offset="1" style="stop-color:#E9605A"/>
			</linearGradient>
			<path style="fill:url(#SVGID_00000015351206805400696070000006353869980181582477_);" d="M1914.674,736.045
				c0,0-139.974,391.64-253.162,509.9c-113.188,118.259-380.656,337.175-398.191,767.369
				c-17.535,430.194,91.456,289.294,136.72,183.625c45.265-105.668,446.888-426.914,630.521-514.998
				c183.633-88.083,208.587-203.366,68.537-249.463c-140.051-46.098-149.779-105.184-80.208-283.814
				c69.57-178.629,177.548-389.189,177.548-389.189S2144.413,556.549,1914.674,736.045z"/>
			<path style="opacity:0.48;fill:#FFFFFF;" d="M2201.635,1696.167c0,0-433.515,168.63-356.264,750.59
				c77.251,581.96,65.442,187.83,29.352,12.573c-36.09-175.257,21.749-310.278,75.416-322.027
				c53.667-11.75-62.825,389.95,42.02,518.234c104.844,128.284-33.566-132.49,1.614-360.589
				C2026.177,2084.85,1972.738,1889.918,2201.635,1696.167z"/>
			<path style="opacity:0.48;fill:#FFFFFF;" d="M2481.704,1593.811c0,0,301.875-72.171,366.51,295.954
				c64.634,368.125-82.085,548.444-116.433,742.162c-34.348,193.718,62.842-292.675,72.875-462.07
				c10.034-169.394,50.26-311.96-58.764-365.61c-109.025-53.65-237.267,294.382-338.721,369.034
				c-101.456,74.651-33.549-35.215,98.073-228.95C2636.867,1750.598,2873.327,1636.51,2481.704,1593.811z"/>
		</g>
		<g>
			
				<linearGradient id="SVGID_00000178194285162211754110000011113139789889077909_" gradientUnits="userSpaceOnUse" x1="122.5648" y1="710.3582" x2="77.3118" y2="1529.931" gradientTransform="matrix(-1 0 0 1 2745.8667 0)">
				<stop  offset="0" style="stop-color:#09005D"/>
				<stop  offset="1" style="stop-color:#1A0F91"/>
			</linearGradient>
			<path style="fill:url(#SVGID_00000178194285162211754110000011113139789889077909_);" d="M2858.649,3143.418
				c0,0,6.215,35.183,9.262,70.01c1.191,13.613-9.302,25.43-22.955,25.999c-46.379,1.932-145.588,5.688-181.188,4.099
				c-5.351-0.239-8.85-5.717-6.869-10.695l0,0c1.659-4.17,4.86-7.542,8.938-9.417l163.875-75.316L2858.649,3143.418z"/>
			
				<linearGradient id="SVGID_00000126305772977191291570000017335614808945539712_" gradientUnits="userSpaceOnUse" x1="-117.8732" y1="3143.2734" x2="-64.5699" y2="3143.2734" gradientTransform="matrix(-1 0 0 1 2745.8667 0)">
				<stop  offset="0" style="stop-color:#FEBBBA"/>
				<stop  offset="1" style="stop-color:#FF928E"/>
			</linearGradient>
			<path style="fill:url(#SVGID_00000126305772977191291570000017335614808945539712_);" d="M2863.74,3122.746l-4.993,42.084
				c0,0-28.706,13.364-48.31-1.685l11.889-46.898L2863.74,3122.746z"/>
			
				<linearGradient id="SVGID_00000018932427548315645590000003564051316283314367_" gradientUnits="userSpaceOnUse" x1="25.6417" y1="3126.6223" x2="-307.3906" y2="2245.2639" gradientTransform="matrix(-1 0 0 1 2745.8667 0)">
				<stop  offset="0" style="stop-color:#4F52FF"/>
				<stop  offset="1" style="stop-color:#4042E2"/>
			</linearGradient>
			<path style="fill:url(#SVGID_00000018932427548315645590000003564051316283314367_);" d="M2859.988,2331.563
				c2.157,10.99,11.577,548.42-45.871,789.26c-0.937,3.931,1.056,7.981,4.796,9.508c8.812,3.601,26.085,8.813,46.786,9.509
				c6.41,0.215,12.158-3.951,13.968-10.105c16.421-55.878,95.108-335.847,105.373-603.293c11.469-298.844,0-10.176,0-10.176
				l-6.728-184.727L2859.988,2331.563z"/>
			
				<linearGradient id="SVGID_00000005984886457133214470000016034758501657888166_" gradientUnits="userSpaceOnUse" x1="-138.309" y1="695.9516" x2="-183.5621" y2="1515.5248" gradientTransform="matrix(-1 0 0 1 2745.8667 0)">
				<stop  offset="0" style="stop-color:#09005D"/>
				<stop  offset="1" style="stop-color:#1A0F91"/>
			</linearGradient>
			<path style="fill:url(#SVGID_00000005984886457133214470000016034758501657888166_);" d="M3047.158,3161.773
				c0,0,9.893,17.762,19.469,64.959c1.73,8.523-4.225,16.681-12.881,17.532c-15.314,1.505-38.891,3.442-57.776,3.312
				c-8.706-0.06-15.5-7.64-14.45-16.284c2.091-17.227,8.609-45.491,28.741-67.521L3047.158,3161.773z"/>
			
				<linearGradient id="SVGID_00000038412805826290182810000001466557381480110781_" gradientUnits="userSpaceOnUse" x1="-309.9802" y1="3140.5398" x2="-263.9572" y2="3140.5398" gradientTransform="matrix(-1 0 0 1 2745.8667 0)">
				<stop  offset="0" style="stop-color:#FEBBBA"/>
				<stop  offset="1" style="stop-color:#FF928E"/>
			</linearGradient>
			<path style="fill:url(#SVGID_00000038412805826290182810000001466557381480110781_);" d="M3055.847,3107.644l-11.667,63.641
				c0,0-11.534,8.581-34.355,2.361l5.569-68.474L3055.847,3107.644z"/>
			
				<linearGradient id="SVGID_00000168798244849855759760000003150013241000727473_" gradientUnits="userSpaceOnUse" x1="-359.5858" y1="2729.9275" x2="-109.3686" y2="2729.9275" gradientTransform="matrix(-1 0 0 1 2745.8667 0)">
				<stop  offset="0" style="stop-color:#4F52FF"/>
				<stop  offset="1" style="stop-color:#4042E2"/>
			</linearGradient>
			<path style="fill:url(#SVGID_00000168798244849855759760000003150013241000727473_);" d="M3087.366,2348.054
				c46.983,283.553-10.191,700.824-29.475,782.494c-1.181,5-5.217,8.83-10.284,9.67c-8.608,1.427-22.779,2.591-36.749-1.465
				c-4.814-1.399-8.195-5.741-8.392-10.749c-2.587-66.028,2.07-471.375-41.709-631.57c-2.219-8.118-7.177-15.198-14.036-20.074
				l-84.97-60.408l-6.515-97.642L3087.366,2348.054z"/>
			<g>
				<path style="fill:#7D97F4;" d="M2787.981,1810.777c140.803-2.327,296.163,36.971,296.163,36.971
					c41.971,244.895,7.34,527.364,7.34,527.364c-109.006,28.587-231.972-17.477-231.972-17.477
					c-18.117-102.361-102.649-390.437-102.649-390.437c-68.795-8.538-125.467-28.387-172.138-54.628
					c35.599-41.265,52.382-93.772,59.671-124.81C2694.178,1803.231,2744.553,1811.495,2787.981,1810.777z"/>
				
					<linearGradient id="SVGID_00000067945862230803835980000005404776547212155540_" gradientUnits="userSpaceOnUse" x1="101.4714" y1="1752.6414" x2="373.7913" y2="1752.6414" gradientTransform="matrix(-1 0 0 1 2745.8667 0)">
					<stop  offset="0" style="stop-color:#FEBBBA"/>
					<stop  offset="1" style="stop-color:#FF928E"/>
				</linearGradient>
				<path style="fill:url(#SVGID_00000067945862230803835980000005404776547212155540_);" d="M2372.075,1603.383
					c13.832-16.706,31.338-8.803,31.338-8.803c20.719,87.525,129.364,158.493,240.982,193.181
					c-7.289,31.038-24.072,83.545-59.671,124.81C2399.486,1808.418,2372.075,1603.383,2372.075,1603.383z"/>
			</g>
			<g>
				
					<linearGradient id="SVGID_00000174570615481196206740000009102718896184159391_" gradientUnits="userSpaceOnUse" x1="10133.8857" y1="1705.2529" x2="10313.2998" y2="2113.46" gradientTransform="matrix(1 0 0 1 -7701.9111 0)">
					<stop  offset="0" style="stop-color:#FEBBBA"/>
					<stop  offset="1" style="stop-color:#FF928E"/>
				</linearGradient>
				<path style="fill:url(#SVGID_00000174570615481196206740000009102718896184159391_);" d="M2401.054,1545.418
					c-11.633-15.859-27.671-33.306-42.656-48.499c-6.57,0.017-16.355,6.833-16.355,6.833c-5.646,10.203-12.533,18.817-15.761,31.158
					c-2.444,9.347-0.949,19.334,3.771,27.841c4.739,8.537,11.204,19.634,17.316,28.319c11.568,16.437,28.063,16.561,28.063,16.561
					c-1.447,4.6,15.313,11.607,25.18-7.211C2400.958,1591.401,2406.443,1552.765,2401.054,1545.418z"/>
			</g>
			<path style="fill:#7D97F4;" d="M3030.137,1984.087l54.006-136.338c0,0,131.518,89.36,153.146,202.659
				c-24.849,1.831-70.07,8.294-114.33,30.643C3113.233,2027.552,3030.137,1984.087,3030.137,1984.087z"/>
			
				<linearGradient id="SVGID_00000060725575554193983480000017724501181426605696_" gradientUnits="userSpaceOnUse" x1="-494.4209" y1="2138.3752" x2="-149.7986" y2="2138.3752" gradientTransform="matrix(-1 0 0 1 2745.8667 0)">
				<stop  offset="0" style="stop-color:#FEBBBA"/>
				<stop  offset="1" style="stop-color:#FF928E"/>
			</linearGradient>
			<path style="fill:url(#SVGID_00000060725575554193983480000017724501181426605696_);" d="M2915.206,2112.376
				c0,0,147.66,83.451,197.484,12.194c10.345-14.795,12.817-29.5,10.27-43.519c44.26-22.348,89.48-28.812,114.33-30.643
				c6.521,34.156,3.073,70.483-16.998,107.199c-87.272,159.646-324.627-8.823-324.627-8.823L2915.206,2112.376z"/>
			
				<linearGradient id="SVGID_00000076563434308493957730000007612805495464336004_" gradientUnits="userSpaceOnUse" x1="-229.7983" y1="1769.9515" x2="-93.5459" y2="1769.9515" gradientTransform="matrix(-1 0 0 1 2745.8667 0)">
				<stop  offset="0" style="stop-color:#FEBBBA"/>
				<stop  offset="1" style="stop-color:#FF928E"/>
			</linearGradient>
			<path style="fill:url(#SVGID_00000076563434308493957730000007612805495464336004_);" d="M2930.603,1696.467l44.801,129.563
				c0.743,2.147-0.14,4.523-2.127,5.622c-12.212,6.752-56.212,26.269-109.234-7.348c-5.523-3.502-9.283-9.213-10.122-15.698
				l-14.508-112.138H2930.603z"/>
			<g>
				
					<linearGradient id="SVGID_00000005959653558286798610000006572992642308150157_" gradientUnits="userSpaceOnUse" x1="-5525.9165" y1="-1599.551" x2="-5576.8325" y2="-1767.4849" gradientTransform="matrix(-0.746 -0.6659 -0.6659 0.746 -2380.4685 -803.1727)">
					<stop  offset="0" style="stop-color:#FEBBBA"/>
					<stop  offset="1" style="stop-color:#FF928E"/>
				</linearGradient>
				<path style="fill:url(#SVGID_00000005959653558286798610000006572992642308150157_);" d="M2833.122,1576.489
					c0,0-49.197,92.607-42.891,130.016c6.307,37.408,67.278,34.723,120.519,4.34l37.206-99.995L2833.122,1576.489z"/>
				
					<linearGradient id="SVGID_00000147932128397583405320000006766282694301994897_" gradientUnits="userSpaceOnUse" x1="-5571.853" y1="-1892.15" x2="-5529.2622" y2="-1649.2238" gradientTransform="matrix(-0.746 -0.6659 -0.6659 0.746 -2380.4685 -803.1727)">
					<stop  offset="0" style="stop-color:#09005D"/>
					<stop  offset="1" style="stop-color:#1A0F91"/>
				</linearGradient>
				<path style="fill:url(#SVGID_00000147932128397583405320000006766282694301994897_);" d="M2908.398,1661.739
					c-2.165-0.96-2.963-3.606-1.666-5.587c3.941-6.021,11.329-18.305,13.687-29.059c0,0,8.844-5.665-22.51-13.169
					c-31.353-7.505-78.111-19.154-87.938-45.842c-9.583-26.02,15.594-91.456,55.76-39.318c1.528,1.984,4.522,2.029,6.048,0.043
					c6.585-8.571,23.895-26.359,47.93-15.574c22.491,10.091,25.025,26.571,24.716,34.879c-0.091,2.444,2.094,4.343,4.496,3.885
					c11.372-2.168,38.66-4.03,51.396,23.962c10.492,23.057,3.672,36.11-2.537,42.493c-2.012,2.068-1.131,5.474,1.628,6.318
					c7.473,2.288,17.124,8.624,16.158,26.134c-1.336,24.206-28.4,22.073-36.104,20.97c-1.263-0.182-2.534,0.253-3.389,1.198
					c-6.608,7.31-36.375,38.355-68.591,42.097c-2.79,0.324-4.952-2.431-4.038-5.087l13.943-40.528
					c0.647-1.882-0.253-3.947-2.073-4.754L2908.398,1661.739z"/>
				
					<linearGradient id="SVGID_00000077324020563916605020000014362026949447602830_" gradientUnits="userSpaceOnUse" x1="-5577.9658" y1="-1600.3336" x2="-5623.7754" y2="-1751.4246" gradientTransform="matrix(-0.746 -0.6659 -0.6659 0.746 -2380.4685 -803.1727)">
					<stop  offset="0" style="stop-color:#FEBBBA"/>
					<stop  offset="1" style="stop-color:#FF928E"/>
				</linearGradient>
				<path style="fill:url(#SVGID_00000077324020563916605020000014362026949447602830_);" d="M2902.793,1667.491
					c0,0,35.028-24.033,37.587-3.794c2.56,20.239-31.543,29.315-48.434,21.769L2902.793,1667.491z"/>
			</g>
			
				<linearGradient id="SVGID_00000133494584554630981890000008557283602188085157_" gradientUnits="userSpaceOnUse" x1="2795.8481" y1="1749.8247" x2="2917.0002" y2="1749.8247">
				<stop  offset="0" style="stop-color:#2B3582"/>
				<stop  offset="1" style="stop-color:#150E42"/>
			</linearGradient>
			<path style="fill:url(#SVGID_00000133494584554630981890000008557283602188085157_);" d="M2826.809,1829.995
				c-11.369,0-19.776-4-24.991-11.89c-17.118-25.886,7.912-85.439,8.986-87.961c0.727-1.704,2.691-2.501,4.396-1.771
				c1.702,0.724,2.498,2.693,1.771,4.396c-0.249,0.584-24.699,58.749-9.559,81.641c3.951,5.974,10.296,8.88,19.396,8.88
				c69.571,0,83.37-149.073,83.5-150.579c0.16-1.843,1.807-3.188,3.631-3.048c1.843,0.16,3.208,1.786,3.048,3.629
				c-0.033,0.388-3.516,39.238-16.018,77.569C2884.091,1802.631,2858.445,1829.995,2826.809,1829.995z"/>
			
				<linearGradient id="SVGID_00000063593633644638222630000014666275965838124715_" gradientUnits="userSpaceOnUse" x1="2355.8535" y1="1754.1925" x2="2817.239" y2="1754.1925">
				<stop  offset="0" style="stop-color:#2B3582"/>
				<stop  offset="1" style="stop-color:#150E42"/>
			</linearGradient>
			<path style="fill:url(#SVGID_00000063593633644638222630000014666275965838124715_);" d="M2666.675,1932.256
				c-10.583,0-21.881-0.658-33.98-2.082c-94.062-11.067-171.778-75.24-224.742-185.579c-39.84-83.001-51.946-163.821-52.064-164.626
				c-0.269-1.833,1.002-3.534,2.832-3.801c1.833-0.278,3.532,1,3.801,2.832c0.118,0.799,12.109,80.747,51.547,162.84
				c36.203,75.362,103.656,168.057,219.412,181.675c65.378,7.69,116.731-6.78,148.512-41.847
				c23.917-26.389,28.536-55.241,28.582-55.529c0.278-1.83,1.974-3.102,3.817-2.811c1.83,0.278,3.087,1.989,2.809,3.819
				C2817.03,1828.282,2799.533,1932.256,2666.675,1932.256z"/>
			<g>
				
					<linearGradient id="SVGID_00000154384300766333565940000017495730092115989662_" gradientUnits="userSpaceOnUse" x1="2816.7874" y1="1960.532" x2="2261.5325" y2="2864.4358">
					<stop  offset="0" style="stop-color:#09005D"/>
					<stop  offset="1" style="stop-color:#1A0F91"/>
				</linearGradient>
				<path style="fill:url(#SVGID_00000154384300766333565940000017495730092115989662_);" d="M2932.947,2217.95l-80.586-281.431
					c-0.916-3.195-3.64-5.525-6.941-5.91c-14.601-1.703-56.91-6.486-105.759-10.618c-58.841-4.977-127.172-9.009-168.005-5.579
					c-5.804,0.487-9.312,6.627-6.73,11.85c23.219,46.976,118.732,238.067,166.561,300.665c1.584,2.073,4.035,3.286,6.646,3.262
					l186.977-1.74C2930.549,2228.401,2934.445,2223.18,2932.947,2217.95z"/>
				
					<linearGradient id="SVGID_00000152974295441311658220000006243926273887563907_" gradientUnits="userSpaceOnUse" x1="73.1048" y1="1768.9016" x2="32.7473" y2="1946.1233" gradientTransform="matrix(-1 0 0 1 2745.8667 0)">
					<stop  offset="0" style="stop-color:#4F52FF"/>
					<stop  offset="1" style="stop-color:#4042E2"/>
				</linearGradient>
				<path style="fill:url(#SVGID_00000152974295441311658220000006243926273887563907_);" d="M2731.302,1895.593l-58.429-9.735
					c-3.112-0.518-5.66,2.455-4.67,5.451l5.783,17.525c0.503,1.526,1.834,2.63,3.427,2.843l56.224,7.51
					c2.909,0.389,5.307-2.254,4.639-5.112l-3.582-15.302C2734.309,1897.125,2732.971,1895.87,2731.302,1895.593z"/>
				
					<linearGradient id="SVGID_00000149378172450080280280000009317760650502051229_" gradientUnits="userSpaceOnUse" x1="51.9838" y1="1843.2416" x2="32.6824" y2="1959.05" gradientTransform="matrix(-1 0 0 1 2745.8667 0)">
					<stop  offset="0" style="stop-color:#4F52FF"/>
					<stop  offset="1" style="stop-color:#4042E2"/>
				</linearGradient>
				<path style="fill:url(#SVGID_00000149378172450080280280000009317760650502051229_);" d="M2775.051,1945.056l-4.814-25.072
					c-0.483-2.514-2.559-4.415-5.106-4.673l-118.01-11.974c-3.973-0.403-7.153,3.237-6.221,7.118l7.503,31.242
					c0.6,2.5,2.776,4.305,5.343,4.434l115.321,5.806C2772.821,1952.126,2775.759,1948.748,2775.051,1945.056z"/>
				
					<linearGradient id="SVGID_00000113347412323424242440000001709082753692841910_" gradientUnits="userSpaceOnUse" x1="-175.3848" y1="2102.2417" x2="-68.0205" y2="2102.2417" gradientTransform="matrix(-1 0 0 1 2745.8667 0)">
					<stop  offset="0" style="stop-color:#FEBBBA"/>
					<stop  offset="1" style="stop-color:#FF928E"/>
				</linearGradient>
				<path style="fill:url(#SVGID_00000113347412323424242440000001709082753692841910_);" d="M2913.477,2149.956
					c0,0,11.226-46.16,6.698-62.537c-4.528-16.376-13.302-37.433-42.547-32.753c-29.245,4.679-63.741,16.998-63.741,16.998
					s1.743,21.332,23.969,14.45l-13.782,10.665c0,0,1.969,17.08,20.743,7.955l-12.818,14.143c0,0,8.062,14.027,21.875,5.031
					C2867.686,2114.909,2874.307,2155.515,2913.477,2149.956z"/>
			</g>
			
				<linearGradient id="SVGID_00000107567264758892566360000001299593296539855268_" gradientUnits="userSpaceOnUse" x1="2329.1462" y1="1559.4431" x2="2389.2664" y2="1559.4431">
				<stop  offset="0" style="stop-color:#09005D"/>
				<stop  offset="1" style="stop-color:#1A0F91"/>
			</linearGradient>
			<path style="fill:url(#SVGID_00000107567264758892566360000001299593296539855268_);" d="M2389.266,1559.443
				c0,23.981-13.458,43.42-30.06,43.42c-16.602,0-30.06-19.439-30.06-43.42c0-23.98,13.458-43.42,30.06-43.42
				C2375.808,1516.023,2389.266,1535.463,2389.266,1559.443z"/>
			
				<linearGradient id="SVGID_00000121968674824759904650000004216792643888455337_" gradientUnits="userSpaceOnUse" x1="908.3067" y1="1789.7098" x2="984.5575" y2="1672.4741" gradientTransform="matrix(-0.9769 0.2135 0.2135 0.9769 2888.0393 -355.333)">
				<stop  offset="0" style="stop-color:#FEBBBA"/>
				<stop  offset="1" style="stop-color:#FF928E"/>
			</linearGradient>
			<path style="fill:url(#SVGID_00000121968674824759904650000004216792643888455337_);" d="M2353.8,1545.669l28.486,15.121
				l11.978,18.635l-16.231,28.453c0,0-16.001-38.672-23.26-46.212C2347.514,1554.126,2349.371,1549.307,2353.8,1545.669z"/>
		</g>
	</g>
</g>
</svg>
